<svg width="25" height="24" viewBox="0 0 25 24" fill="none" xmlns="http://www.w3.org/2000/svg">
<path fill-rule="evenodd" clip-rule="evenodd" d="M12.4991 2.50012C7.25244 2.50012 2.99915 6.75342 2.99915 12.0001C2.99915 17.2468 7.25244 21.5001 12.4991 21.5001C17.7459 21.5001 21.9991 17.2468 21.9991 12.0001C21.9991 6.75342 17.7459 2.50012 12.4991 2.50012ZM13.0305 7.18408C12.7376 6.89118 12.2627 6.89118 11.9698 7.18408L8.54122 10.6126C8.24833 10.9055 8.24833 11.3804 8.54122 11.6733C8.83411 11.9662 9.30899 11.9662 9.60188 11.6733L11.7501 9.52507L11.7501 16.2858C11.7501 16.7 12.0859 17.0358 12.5001 17.0358C12.9143 17.0358 13.2501 16.7 13.2501 16.2858L13.2501 9.52507L15.3984 11.6733C15.6913 11.9662 16.1661 11.9662 16.459 11.6733C16.7519 11.3804 16.7519 10.9055 16.459 10.6126L13.0305 7.18408Z" fill="white"/>
</svg>
